<mxfile host="app.diagrams.net" modified="2023-07-18T08:38:24.083Z" agent="Mozilla/5.0 (Windows NT 10.0; Win64; x64) AppleWebKit/537.36 (KHTML, like Gecko) Chrome/114.0.0.0 Safari/537.36" etag="8GGa2x7lVP7UrhR85gCs" version="21.6.2" type="github">
  <diagram name="Page-1" id="GzhSxGq-bqeo7eVyVP8Y">
    <mxGraphModel dx="1562" dy="837" grid="1" gridSize="10" guides="1" tooltips="1" connect="1" arrows="1" fold="1" page="1" pageScale="1" pageWidth="850" pageHeight="1100" math="0" shadow="0">
      <root>
        <mxCell id="0" />
        <mxCell id="1" parent="0" />
        <mxCell id="f1BawXqNur_GOFj9Xza5-1" value=":Object" style="shape=umlLifeline;perimeter=lifelinePerimeter;whiteSpace=wrap;html=1;container=1;dropTarget=0;collapsible=0;recursiveResize=0;outlineConnect=0;portConstraint=eastwest;newEdgeStyle={&quot;edgeStyle&quot;:&quot;elbowEdgeStyle&quot;,&quot;elbow&quot;:&quot;vertical&quot;,&quot;curved&quot;:0,&quot;rounded&quot;:0};" vertex="1" parent="1">
          <mxGeometry x="80" y="160" width="145" height="300" as="geometry" />
        </mxCell>
        <mxCell id="f1BawXqNur_GOFj9Xza5-9" value="" style="html=1;points=[];perimeter=orthogonalPerimeter;outlineConnect=0;targetShapes=umlLifeline;portConstraint=eastwest;newEdgeStyle={&quot;edgeStyle&quot;:&quot;elbowEdgeStyle&quot;,&quot;elbow&quot;:&quot;vertical&quot;,&quot;curved&quot;:0,&quot;rounded&quot;:0};" vertex="1" parent="f1BawXqNur_GOFj9Xza5-1">
          <mxGeometry x="67.5" y="120" width="10" height="80" as="geometry" />
        </mxCell>
        <mxCell id="f1BawXqNur_GOFj9Xza5-2" value=":Object" style="shape=umlLifeline;perimeter=lifelinePerimeter;whiteSpace=wrap;html=1;container=1;dropTarget=0;collapsible=0;recursiveResize=0;outlineConnect=0;portConstraint=eastwest;newEdgeStyle={&quot;edgeStyle&quot;:&quot;elbowEdgeStyle&quot;,&quot;elbow&quot;:&quot;vertical&quot;,&quot;curved&quot;:0,&quot;rounded&quot;:0};" vertex="1" parent="1">
          <mxGeometry x="400" y="170" width="100" height="300" as="geometry" />
        </mxCell>
        <mxCell id="f1BawXqNur_GOFj9Xza5-11" value="" style="html=1;points=[];perimeter=orthogonalPerimeter;outlineConnect=0;targetShapes=umlLifeline;portConstraint=eastwest;newEdgeStyle={&quot;edgeStyle&quot;:&quot;elbowEdgeStyle&quot;,&quot;elbow&quot;:&quot;vertical&quot;,&quot;curved&quot;:0,&quot;rounded&quot;:0};" vertex="1" parent="f1BawXqNur_GOFj9Xza5-2">
          <mxGeometry x="45" y="110" width="10" height="80" as="geometry" />
        </mxCell>
        <mxCell id="f1BawXqNur_GOFj9Xza5-12" value="" style="edgeStyle=elbowEdgeStyle;rounded=0;orthogonalLoop=1;jettySize=auto;html=1;elbow=vertical;curved=0;" edge="1" parent="1" source="f1BawXqNur_GOFj9Xza5-9" target="f1BawXqNur_GOFj9Xza5-11">
          <mxGeometry relative="1" as="geometry">
            <Array as="points">
              <mxPoint x="340" y="300" />
            </Array>
          </mxGeometry>
        </mxCell>
        <mxCell id="f1BawXqNur_GOFj9Xza5-13" value="操作1" style="edgeLabel;html=1;align=center;verticalAlign=middle;resizable=0;points=[];" vertex="1" connectable="0" parent="f1BawXqNur_GOFj9Xza5-12">
          <mxGeometry x="-0.184" y="2" relative="1" as="geometry">
            <mxPoint as="offset" />
          </mxGeometry>
        </mxCell>
        <mxCell id="f1BawXqNur_GOFj9Xza5-14" value="" style="edgeStyle=elbowEdgeStyle;rounded=0;orthogonalLoop=1;jettySize=auto;html=1;elbow=vertical;curved=0;" edge="1" parent="1">
          <mxGeometry relative="1" as="geometry">
            <mxPoint x="158" y="350" as="sourcePoint" />
            <mxPoint x="445" y="350" as="targetPoint" />
            <Array as="points">
              <mxPoint x="310" y="320" />
            </Array>
          </mxGeometry>
        </mxCell>
        <mxCell id="f1BawXqNur_GOFj9Xza5-15" value="操作2" style="edgeLabel;html=1;align=center;verticalAlign=middle;resizable=0;points=[];" vertex="1" connectable="0" parent="f1BawXqNur_GOFj9Xza5-14">
          <mxGeometry x="-0.184" y="2" relative="1" as="geometry">
            <mxPoint as="offset" />
          </mxGeometry>
        </mxCell>
        <mxCell id="f1BawXqNur_GOFj9Xza5-16" value="开启事务A" style="line;strokeWidth=2;html=1;dashed=1;" vertex="1" parent="1">
          <mxGeometry x="100" y="240" width="410" height="10" as="geometry" />
        </mxCell>
        <mxCell id="f1BawXqNur_GOFj9Xza5-18" value="事务B" style="line;strokeWidth=2;html=1;dashed=1;" vertex="1" parent="1">
          <mxGeometry x="140" y="370" width="330" height="10" as="geometry" />
        </mxCell>
        <mxCell id="f1BawXqNur_GOFj9Xza5-19" value="提交事务B" style="line;strokeWidth=2;html=1;dashed=1;" vertex="1" parent="1">
          <mxGeometry x="140" y="460" width="330" height="10" as="geometry" />
        </mxCell>
        <mxCell id="f1BawXqNur_GOFj9Xza5-21" value="" style="edgeStyle=elbowEdgeStyle;rounded=0;orthogonalLoop=1;jettySize=auto;html=1;elbow=vertical;curved=0;" edge="1" parent="1">
          <mxGeometry relative="1" as="geometry">
            <mxPoint x="510" y="340" as="sourcePoint" />
            <mxPoint x="797" y="340" as="targetPoint" />
            <Array as="points">
              <mxPoint x="692" y="340" />
            </Array>
          </mxGeometry>
        </mxCell>
        <mxCell id="f1BawXqNur_GOFj9Xza5-22" value="操作1" style="edgeLabel;html=1;align=center;verticalAlign=middle;resizable=0;points=[];" vertex="1" connectable="0" parent="f1BawXqNur_GOFj9Xza5-21">
          <mxGeometry x="-0.184" y="2" relative="1" as="geometry">
            <mxPoint as="offset" />
          </mxGeometry>
        </mxCell>
        <mxCell id="f1BawXqNur_GOFj9Xza5-23" value="开启事务A" style="rounded=0;whiteSpace=wrap;html=1;fillColor=#dae8fc;strokeColor=#6c8ebf;" vertex="1" parent="1">
          <mxGeometry x="121" y="510" width="340" height="20" as="geometry" />
        </mxCell>
        <mxCell id="f1BawXqNur_GOFj9Xza5-24" value="操作1" style="rounded=0;whiteSpace=wrap;html=1;" vertex="1" parent="1">
          <mxGeometry x="141" y="540" width="320" height="20" as="geometry" />
        </mxCell>
        <mxCell id="f1BawXqNur_GOFj9Xza5-25" value="操作2" style="rounded=0;whiteSpace=wrap;html=1;" vertex="1" parent="1">
          <mxGeometry x="141" y="570" width="320" height="20" as="geometry" />
        </mxCell>
        <mxCell id="f1BawXqNur_GOFj9Xza5-26" value="开启事务B" style="rounded=0;whiteSpace=wrap;html=1;fillColor=#fff2cc;strokeColor=#d6b656;" vertex="1" parent="1">
          <mxGeometry x="161" y="600" width="320" height="20" as="geometry" />
        </mxCell>
        <mxCell id="f1BawXqNur_GOFj9Xza5-27" value="操作3" style="rounded=0;whiteSpace=wrap;html=1;" vertex="1" parent="1">
          <mxGeometry x="181" y="630" width="320" height="20" as="geometry" />
        </mxCell>
        <mxCell id="f1BawXqNur_GOFj9Xza5-28" value="操作4" style="rounded=0;whiteSpace=wrap;html=1;" vertex="1" parent="1">
          <mxGeometry x="181" y="660" width="320" height="20" as="geometry" />
        </mxCell>
        <mxCell id="f1BawXqNur_GOFj9Xza5-29" value="提交事务B" style="rounded=0;whiteSpace=wrap;html=1;fillColor=#fff2cc;strokeColor=#d6b656;" vertex="1" parent="1">
          <mxGeometry x="161" y="690" width="320" height="20" as="geometry" />
        </mxCell>
        <mxCell id="f1BawXqNur_GOFj9Xza5-30" value="提交事务A" style="rounded=0;whiteSpace=wrap;html=1;fillColor=#dae8fc;strokeColor=#6c8ebf;" vertex="1" parent="1">
          <mxGeometry x="121" y="745" width="340" height="20" as="geometry" />
        </mxCell>
        <mxCell id="f1BawXqNur_GOFj9Xza5-31" value="操作5" style="rounded=0;whiteSpace=wrap;html=1;fillColor=#f8cecc;strokeColor=#b85450;" vertex="1" parent="1">
          <mxGeometry x="141" y="720" width="320" height="20" as="geometry" />
        </mxCell>
      </root>
    </mxGraphModel>
  </diagram>
</mxfile>
